# xmcd
#
# Track frame offsets:
#	150
#	16497
#	31337
#	66462
#	84742
#	104695
#	120725
#	145302
#	162575
#	179659
#	196587
#	212352
#
# Disc length: 3170 seconds
#
# Revision: 1
# Processed by: cddbd v1.5.1PL2 Copyright (c) Steve Scherf et al.
# Submitted via: EasyCDDAExtractor 8.2.4.1
#
DISCID=af0c600c
DTITLE=เสรีย์ รุ่งสว่าง and ทิพย์วรรณ แก้วจันทร์ - รอยรักรอยมลทิน
DYEAR=2543
DGENRE=
TTITLE0=รอยรักรอยแผ่นดิน
TTITLE1=หนี้กรรม
TTITLE2=มนต์เสียงเพลง
TTITLE3=ธรณีชีวิต
TTITLE4=โฉมนาง
TTITLE5=ดวงตาดวงใจ
TTITLE6=เบรครัก เบรครถ
TTITLE7=แล้วใครลืมใคร
TTITLE8=หลงเสียงนาง
TTITLE9=วอนลมฝากรัก
TTITLE10=สัญญารัก
TTITLE11=ระแวงรัก
EXTD=
EXTT0=
EXTT1=
EXTT2=
EXTT3=
EXTT4=
EXTT5=
EXTT6=
EXTT7=
EXTT8=
EXTT9=
EXTT10=
EXTT11=
PLAYORDER=
